<svg width="205" height="60" viewBox="0 0 205 60" fill="none" xmlns="http://www.w3.org/2000/svg">
<rect width="205" height="60" rx="10" fill="white"/>
<path d="M44.5748 28.2443C44.5934 26.8228 44.9766 25.429 45.6887 24.1926C46.4008 22.9562 47.4187 21.9174 48.6477 21.1728C47.867 20.074 46.837 19.1698 45.6395 18.5319C44.4421 17.8939 43.1102 17.5399 41.7496 17.498C38.8474 17.1978 36.0337 19.2095 34.5547 19.2095C33.0472 19.2095 30.7701 17.5278 28.3179 17.5776C26.7319 17.6281 25.1862 18.0826 23.8314 18.8968C22.4766 19.711 21.359 20.8571 20.5873 22.2235C17.2446 27.9263 19.738 36.3073 22.9399 40.9172C24.5418 43.1744 26.4141 45.6958 28.8639 45.6064C31.2612 45.5085 32.1567 44.1 35.0503 44.1C37.9173 44.1 38.7573 45.6064 41.2568 45.5496C43.8293 45.5085 45.4502 43.2824 46.9958 41.0037C48.1469 39.3953 49.0326 37.6176 49.6202 35.7366C48.1257 35.1137 46.8503 34.0711 45.9531 32.7388C45.0559 31.4064 44.5765 29.8433 44.5748 28.2443V28.2443ZM39.8536 14.4664C41.2562 12.8072 41.9473 10.6745 41.7799 8.52124C39.637 8.74307 37.6577 9.75232 36.2362 11.3479C35.5411 12.1274 35.0088 13.0342 34.6696 14.0165C34.3304 14.9988 34.191 16.0374 34.2594 17.0728C35.3312 17.0837 36.3916 16.8548 37.3606 16.4033C38.3297 15.9518 39.1821 15.2895 39.8538 14.4663L39.8536 14.4664ZM73.3364 40.1188H65.4693L63.5801 45.6159H60.2477L67.6994 25.2778H71.1615L78.613 45.6159H75.2241L73.3364 40.1188ZM66.2841 37.582H72.52L69.4459 28.6607H69.3598L66.2841 37.582ZM94.7058 38.2028C94.7058 42.8105 92.2029 45.771 88.4261 45.771C87.4694 45.8203 86.5179 45.6031 85.6806 45.1443C84.8433 44.6855 84.154 44.0036 83.6917 43.1767H83.6202V50.5212H80.5313V30.7878H83.5212V33.2542H83.578C84.0616 32.4312 84.7625 31.7529 85.6062 31.2913C86.4499 30.8297 87.4048 30.6021 88.3693 30.6327C92.1883 30.6327 94.7058 33.6076 94.7058 38.2026V38.2028ZM91.531 38.2028C91.531 35.2007 89.9567 33.227 87.5546 33.227C85.1945 33.227 83.6072 35.2421 83.6072 38.2026C83.6072 41.1904 85.1945 43.1913 87.5546 43.1913C89.9567 43.1913 91.531 41.232 91.531 38.2026V38.2028ZM111.268 38.2028C111.268 42.8105 108.765 45.771 104.988 45.771C104.031 45.8203 103.08 45.6031 102.242 45.1443C101.405 44.6855 100.716 44.0036 100.253 43.1767H100.182V50.5212H97.0933V30.7878H100.083V33.2542H100.14C100.623 32.4312 101.324 31.7529 102.168 31.2913C103.012 30.8297 103.967 30.6021 104.931 30.6327C108.75 30.6327 111.268 33.6076 111.268 38.2026V38.2028ZM108.093 38.2028C108.093 35.2007 106.519 33.227 104.116 33.227C101.756 33.227 100.169 35.2421 100.169 38.2026C100.169 41.1904 101.756 43.1913 104.116 43.1913C106.519 43.1913 108.093 41.232 108.093 38.2026V38.2028ZM122.213 39.9493C122.442 41.9661 124.43 43.2904 127.147 43.2904C129.75 43.2904 131.624 41.9661 131.624 40.1475C131.624 38.5688 130.494 37.6236 127.819 36.9759L125.144 36.3409C121.354 35.4388 119.595 33.6923 119.595 30.8581C119.595 27.349 122.698 24.9388 127.103 24.9388C131.466 24.9388 134.456 27.349 134.556 30.8581H131.439C131.252 28.8285 129.549 27.6033 127.061 27.6033C124.573 27.6033 122.87 28.843 122.87 30.647C122.87 32.085 123.958 32.931 126.618 33.5786L128.892 34.1289C133.126 35.1157 134.884 36.792 134.884 39.7667C134.884 43.5718 131.81 45.9549 126.918 45.9549C122.341 45.9549 119.251 43.6276 119.051 39.9491L122.213 39.9493ZM141.553 27.2789V30.7878H144.415V33.1982H141.553V41.3727C141.553 42.6426 142.126 43.2344 143.384 43.2344C143.724 43.2285 144.063 43.205 144.4 43.164V45.56C143.835 45.6641 143.26 45.7112 142.685 45.7006C139.638 45.7006 138.45 44.5731 138.45 41.6973V33.1982H136.262V30.7878H138.45V27.2789H141.553ZM146.071 38.2028C146.071 33.5372 148.859 30.6055 153.207 30.6055C157.57 30.6055 160.346 33.5372 160.346 38.2028C160.346 42.8809 157.585 45.7998 153.207 45.7998C148.831 45.7998 146.071 42.8809 146.071 38.2028ZM157.198 38.2028C157.198 35.0024 155.71 33.1133 153.207 33.1133C150.704 33.1133 149.216 35.0166 149.216 38.2028C149.216 41.4159 150.704 43.2904 153.207 43.2904C155.71 43.2904 157.198 41.4159 157.198 38.2028ZM162.892 30.7878H165.838V33.3117H165.909C166.109 32.5234 166.577 31.8268 167.237 31.3389C167.896 30.8511 168.705 30.6017 169.529 30.6327C169.885 30.6315 170.24 30.6696 170.587 30.7462V33.5932C170.138 33.4579 169.669 33.3958 169.199 33.4093C168.751 33.3913 168.303 33.4693 167.888 33.6378C167.473 33.8063 167.1 34.0614 166.794 34.3855C166.488 34.7096 166.257 35.095 166.117 35.5154C165.976 35.9358 165.93 36.3811 165.981 36.8208V45.6159H162.892V30.7878ZM184.828 41.2607C184.412 43.9526 181.752 45.7998 178.349 45.7998C173.971 45.7998 171.254 42.9098 171.254 38.273C171.254 33.622 173.986 30.6055 178.219 30.6055C182.382 30.6055 185 33.4237 185 37.9196V38.9624H174.372V39.1463C174.323 39.692 174.392 40.2418 174.576 40.7591C174.759 41.2764 175.051 41.7494 175.434 42.1466C175.817 42.5439 176.281 42.8563 176.796 43.0632C177.311 43.27 177.865 43.3666 178.42 43.3464C179.15 43.4138 179.883 43.2472 180.509 42.8714C181.135 42.4956 181.621 41.9307 181.895 41.2607H184.828ZM174.387 36.8352H181.91C181.938 36.3445 181.862 35.8535 181.688 35.3929C181.514 34.9323 181.245 34.5122 180.899 34.1588C180.552 33.8054 180.135 33.5264 179.674 33.3394C179.213 33.1523 178.718 33.0612 178.219 33.0717C177.716 33.0688 177.217 33.164 176.752 33.3519C176.286 33.5398 175.863 33.8167 175.507 34.1666C175.151 34.5165 174.868 34.9325 174.676 35.3905C174.484 35.8485 174.385 36.3395 174.387 36.8352V36.8352ZM65.8978 9.96921C66.5454 9.92341 67.1952 10.0198 67.8003 10.2514C68.4055 10.4831 68.951 10.8442 69.3974 11.3087C69.8438 11.7733 70.18 12.3296 70.3817 12.9377C70.5835 13.5458 70.6458 14.1904 70.5641 14.8251C70.5641 17.9471 68.8517 19.7417 65.8978 19.7417H62.3156V9.96905L65.8978 9.96921ZM63.856 18.3596H65.7258C66.1885 18.3868 66.6515 18.3121 67.0812 18.1407C67.5109 17.9694 67.8964 17.7058 68.2097 17.3691C68.5229 17.0324 68.7561 16.6312 68.8921 16.1945C69.0282 15.7579 69.0637 15.2968 68.9962 14.8449C69.0588 14.3948 69.0197 13.9366 68.8816 13.5031C68.7434 13.0697 68.5097 12.6717 68.1971 12.3377C67.8846 12.0037 67.5009 11.742 67.0737 11.5713C66.6464 11.4005 66.1861 11.325 65.7258 11.3502H63.856V18.3596ZM72.3041 16.051C72.257 15.5663 72.3133 15.0773 72.4692 14.6154C72.6252 14.1534 72.8774 13.7286 73.2097 13.3683C73.542 13.0081 73.9471 12.7202 74.3989 12.5232C74.8507 12.3262 75.3394 12.2245 75.8334 12.2245C76.3275 12.2245 76.8161 12.3262 77.2679 12.5232C77.7198 12.7202 78.1248 13.0081 78.4571 13.3683C78.7894 13.7286 79.0417 14.1534 79.1976 14.6154C79.3536 15.0773 79.4098 15.5663 79.3628 16.051C79.4108 16.5362 79.3553 17.026 79.1999 17.4888C79.0444 17.9516 78.7923 18.3773 78.4599 18.7384C78.1275 19.0995 77.7221 19.388 77.2698 19.5855C76.8174 19.783 76.3282 19.885 75.8334 19.885C75.3387 19.885 74.8494 19.783 74.3971 19.5855C73.9447 19.388 73.5393 19.0995 73.2069 18.7384C72.8745 18.3773 72.6225 17.9516 72.467 17.4888C72.3115 17.026 72.256 16.5362 72.3041 16.051ZM77.8437 16.051C77.8437 14.4523 77.1149 13.5175 75.8359 13.5175C74.552 13.5175 73.8299 14.4523 73.8299 16.051C73.8299 17.6624 74.5522 18.5901 75.8359 18.5901C77.1149 18.5901 77.8437 17.656 77.8437 16.051V16.051ZM88.7459 19.7416H87.2135L85.6668 14.31H85.55L84.0098 19.7416H82.4922L80.4293 12.3666H81.9273L83.268 17.9941H83.3784L84.9171 12.3666H86.334L87.8727 17.9941H87.9895L89.3236 12.3666H90.8007L88.7459 19.7416ZM92.5357 12.3668H93.9576V13.5383H94.0679C94.2551 13.1175 94.5709 12.7647 94.9713 12.5292C95.3716 12.2936 95.8366 12.187 96.3014 12.2243C96.6655 12.1973 97.0311 12.2514 97.3712 12.3826C97.7112 12.5138 98.017 12.7187 98.2657 12.9821C98.5145 13.2455 98.7 13.5607 98.8083 13.9044C98.9167 14.248 98.9452 14.6113 98.8918 14.9673V19.7414H97.4147V15.3328C97.4147 14.1477 96.892 13.5583 95.7998 13.5583C95.5525 13.5469 95.3057 13.5884 95.0763 13.6799C94.8468 13.7713 94.6402 13.9105 94.4704 14.0881C94.3007 14.2656 94.1719 14.4771 94.0929 14.7083C94.0139 14.9394 93.9866 15.1846 94.0127 15.4271V19.7416H92.5357V12.3668ZM101.245 9.4877H102.722V19.7416H101.245V9.4877ZM104.775 16.051C104.728 15.5663 104.785 15.0772 104.941 14.6152C105.097 14.1531 105.349 13.7283 105.681 13.368C106.014 13.0076 106.419 12.7197 106.871 12.5227C107.322 12.3257 107.811 12.2239 108.305 12.2239C108.799 12.2239 109.288 12.3257 109.74 12.5227C110.192 12.7197 110.597 13.0076 110.929 13.368C111.262 13.7283 111.514 14.1531 111.67 14.6152C111.826 15.0772 111.882 15.5663 111.835 16.051C111.883 16.5361 111.827 17.0258 111.672 17.4884C111.516 17.9511 111.264 18.3766 110.931 18.7375C110.599 19.0985 110.194 19.3869 109.741 19.5843C109.289 19.7817 108.8 19.8836 108.305 19.8836C107.811 19.8836 107.321 19.7817 106.869 19.5843C106.417 19.3869 106.011 19.0985 105.679 18.7375C105.347 18.3766 105.094 17.9511 104.939 17.4884C104.783 17.0258 104.728 16.5361 104.775 16.051V16.051ZM110.315 16.051C110.315 14.4523 109.586 13.5175 108.307 13.5175C107.023 13.5175 106.301 14.4523 106.301 16.051C106.301 17.6624 107.023 18.5901 108.307 18.5901C109.586 18.5901 110.315 17.656 110.315 16.051ZM113.39 17.656C113.39 16.3284 114.393 15.5631 116.173 15.4543L118.201 15.3392V14.7026C118.201 13.9237 117.678 13.4839 116.669 13.4839C115.844 13.4839 115.273 13.7822 115.109 14.3036H113.679C113.83 13.0368 115.039 12.2244 116.737 12.2244C118.613 12.2244 119.671 13.1449 119.671 14.7026V19.7416H118.249V18.7052H118.132C117.895 19.0769 117.562 19.38 117.167 19.5834C116.772 19.7869 116.33 19.8834 115.885 19.8631C115.57 19.8953 115.253 19.8623 114.952 19.7661C114.652 19.67 114.375 19.5129 114.14 19.305C113.905 19.097 113.717 18.8428 113.588 18.5588C113.459 18.2748 113.391 17.9673 113.39 17.656V17.656ZM118.201 17.0258V16.4092L116.373 16.5243C115.342 16.5923 114.875 16.9378 114.875 17.5879C114.875 18.2517 115.459 18.638 116.263 18.638C116.498 18.6615 116.736 18.6381 116.962 18.5692C117.188 18.5002 117.398 18.3872 117.579 18.2368C117.759 18.0863 117.908 17.9016 118.014 17.6936C118.121 17.4855 118.185 17.2584 118.201 17.0258V17.0258ZM121.612 16.051C121.612 13.7206 122.828 12.2444 124.719 12.2444C125.187 12.2232 125.651 12.3336 126.057 12.5627C126.464 12.7918 126.796 13.1302 127.014 13.5383H127.124V9.48754H128.601V19.7414H127.186V18.5761H127.069C126.834 18.9815 126.491 19.3157 126.076 19.5425C125.662 19.7693 125.193 19.8801 124.719 19.8629C122.815 19.8629 121.612 18.3866 121.612 16.0508V16.051ZM123.138 16.051C123.138 17.6151 123.886 18.5565 125.138 18.5565C126.382 18.5565 127.152 17.6016 127.152 16.0572C127.152 14.5203 126.374 13.5519 125.138 13.5519C123.894 13.5519 123.138 14.4995 123.138 16.051ZM134.712 16.051C134.665 15.5663 134.721 15.0773 134.877 14.6154C135.033 14.1534 135.286 13.7286 135.618 13.3683C135.95 13.0081 136.355 12.7202 136.807 12.5232C137.259 12.3262 137.747 12.2245 138.242 12.2245C138.736 12.2245 139.224 12.3262 139.676 12.5232C140.128 12.7202 140.533 13.0081 140.865 13.3683C141.198 13.7286 141.45 14.1534 141.606 14.6154C141.762 15.0773 141.818 15.5663 141.771 16.051C141.819 16.5362 141.763 17.026 141.608 17.4888C141.452 17.9516 141.2 18.3773 140.868 18.7384C140.536 19.0995 140.13 19.388 139.678 19.5855C139.226 19.783 138.736 19.885 138.242 19.885C137.747 19.885 137.258 19.783 136.805 19.5855C136.353 19.388 135.947 19.0995 135.615 18.7384C135.283 18.3773 135.031 17.9516 134.875 17.4888C134.72 17.026 134.664 16.5362 134.712 16.051V16.051ZM140.252 16.051C140.252 14.4523 139.523 13.5175 138.244 13.5175C136.96 13.5175 136.238 14.4523 136.238 16.051C136.238 17.6624 136.96 18.5901 138.244 18.5901C139.523 18.5901 140.252 17.656 140.252 16.051ZM143.753 12.3668H145.175V13.5383H145.285C145.472 13.1175 145.788 12.7647 146.188 12.5292C146.589 12.2936 147.054 12.187 147.518 12.2243C147.882 12.1973 148.248 12.2514 148.588 12.3826C148.928 12.5138 149.234 12.7187 149.483 12.9821C149.732 13.2455 149.917 13.5607 150.025 13.9044C150.134 14.248 150.162 14.6113 150.109 14.9673V19.7414H148.632V15.3328C148.632 14.1477 148.109 13.5583 147.017 13.5583C146.77 13.5469 146.523 13.5884 146.293 13.6799C146.064 13.7713 145.857 13.9105 145.687 14.0881C145.518 14.2656 145.389 14.4771 145.31 14.7083C145.231 14.9394 145.204 15.1846 145.23 15.4271V19.7416H143.753L143.753 12.3668ZM158.455 10.5306V12.4003H160.076V13.6262H158.455V17.4184C158.455 18.1909 158.778 18.5293 159.513 18.5293C159.701 18.5286 159.889 18.5174 160.076 18.4956V19.708C159.811 19.7548 159.542 19.7796 159.273 19.7824C157.63 19.7824 156.976 19.2129 156.976 17.7911V13.6262H155.788V12.4002H156.976V10.5308L158.455 10.5306ZM162.094 9.4877H163.558V13.5519H163.674C163.871 13.1271 164.195 12.7724 164.604 12.536C165.012 12.2995 165.484 12.1929 165.956 12.2307C166.319 12.2112 166.681 12.2708 167.017 12.4052C167.353 12.5396 167.655 12.7454 167.901 13.008C168.148 13.2707 168.332 13.5836 168.441 13.9245C168.551 14.2654 168.582 14.6259 168.534 14.9802V19.7416H167.055V15.3392C167.055 14.1611 166.499 13.5647 165.455 13.5647C165.201 13.5442 164.946 13.5786 164.707 13.6654C164.468 13.7523 164.251 13.8896 164.072 14.0677C163.892 14.2458 163.754 14.4604 163.668 14.6964C163.581 14.9325 163.548 15.1843 163.571 15.4344V19.7416H162.094V9.4877ZM177.146 17.7502C176.945 18.4242 176.511 19.0073 175.918 19.3974C175.325 19.7874 174.612 19.9596 173.903 19.8839C173.41 19.8967 172.92 19.8037 172.467 19.6112C172.014 19.4187 171.609 19.1314 171.28 18.7692C170.951 18.4071 170.706 17.9787 170.562 17.5138C170.418 17.049 170.378 16.5588 170.446 16.0774C170.38 15.5944 170.421 15.1031 170.564 14.6369C170.708 14.1706 170.952 13.7402 171.279 13.3749C171.606 13.0095 172.009 12.7177 172.461 12.5192C172.913 12.3207 173.402 12.2201 173.897 12.2243C175.979 12.2243 177.235 13.6262 177.235 15.9421V16.4499H171.951V16.5315C171.927 16.8021 171.962 17.0746 172.052 17.3313C172.142 17.588 172.285 17.8234 172.473 18.0223C172.661 18.2212 172.888 18.3793 173.142 18.4864C173.395 18.5935 173.668 18.6473 173.944 18.6443C174.297 18.6861 174.655 18.6234 174.972 18.4642C175.289 18.305 175.551 18.0564 175.724 17.7502H177.146ZM171.951 15.3736H175.731C175.749 15.1261 175.715 14.8775 175.63 14.6437C175.546 14.41 175.412 14.1963 175.239 14.0164C175.065 13.8364 174.856 13.6943 174.623 13.599C174.39 13.5037 174.14 13.4574 173.888 13.4631C173.633 13.4599 173.38 13.5072 173.143 13.6021C172.906 13.697 172.691 13.8376 172.511 14.0157C172.33 14.1937 172.187 14.4056 172.091 14.6388C171.995 14.872 171.947 15.1219 171.951 15.3736V15.3736Z" fill="#252B33"/>
</svg>
