<svg width="205" height="60" viewBox="0 0 205 60" fill="none" xmlns="http://www.w3.org/2000/svg">
<rect width="205" height="60" rx="10" fill="white"/>
<path fill-rule="evenodd" clip-rule="evenodd" d="M113.823 50.4029C113.064 49.7964 112.458 48.735 112.155 48.1285L114.581 47.0671C114.732 47.3704 115.036 47.8253 115.339 48.2801C115.945 48.8866 116.855 49.4931 117.765 49.4931C118.675 49.4931 119.736 49.0383 120.342 48.2801C120.797 47.522 121.101 46.7639 121.101 45.7025V44.7928C119.281 47.0671 115.49 46.7639 113.368 44.3379C111.093 41.9119 111.093 37.818 113.368 35.392C115.642 33.1177 118.978 32.8144 120.949 34.9372V33.8758H123.527V45.2476C123.527 48.1285 122.465 49.7964 121.101 50.8578C120.191 51.6159 118.826 51.9191 117.613 51.9191C116.249 51.7675 114.884 51.3126 113.823 50.4029ZM177.353 51.0094L179.931 44.9444L175.382 34.4823H177.96L181.144 41.9119L184.328 34.4823H186.906L179.931 51.0094H177.353ZM165.072 45.2476C164.314 44.4895 164.01 43.4281 164.01 42.3668C164.01 41.457 164.314 40.5473 164.92 39.9408C165.981 38.8794 167.498 38.4245 169.166 38.4245C170.227 38.4245 171.137 38.5762 171.895 39.031C171.895 37.2115 170.379 36.4534 169.166 36.4534C168.104 36.4534 167.043 37.0599 166.588 38.1213L164.314 37.2115C164.768 36.1502 165.981 34.179 169.014 34.179C170.53 34.179 172.046 34.6339 172.956 35.6953C173.866 36.7567 174.169 37.9697 174.169 39.6375V46.0058H171.592V44.9444C171.288 45.3993 170.682 45.7025 170.227 46.0058C169.62 46.309 168.862 46.4606 168.104 46.4606C167.194 46.309 165.83 46.0058 165.072 45.2476ZM84.2557 39.7892C84.2557 36.7567 86.5301 33.4209 90.624 33.4209C94.5662 33.4209 96.9922 36.7567 96.9922 39.7892C96.9922 42.8217 94.7179 46.1574 90.624 46.1574C86.5301 46.1574 84.2557 42.8217 84.2557 39.7892ZM97.902 39.7892C97.902 36.7567 100.176 33.4209 104.27 33.4209C108.212 33.4209 110.638 36.7567 110.638 39.7892C110.638 42.8217 108.364 46.1574 104.27 46.1574C100.328 46.1574 97.902 42.8217 97.902 39.7892ZM67.1221 43.1249C63.3315 39.3343 63.4831 33.1177 67.2738 29.1754C69.2449 27.2043 71.6709 26.2946 74.2485 26.2946C76.6745 26.2946 79.1005 27.2043 80.92 29.0238L79.1005 30.9949C76.3712 28.2657 71.9741 28.4173 69.3965 31.1465C66.6673 34.0274 66.6673 38.4245 69.3965 41.3054C72.1258 44.1863 76.6745 44.3379 79.4037 41.457C80.3135 40.5473 80.6168 39.3343 80.7684 38.1213H74.4001V35.392H83.346C83.4976 35.9985 83.4976 36.7567 83.4976 37.5148C83.4976 39.7892 82.5879 42.0635 81.0716 43.5798C79.4037 45.2477 76.9777 46.1574 74.5518 46.1574C71.8225 46.0058 69.0933 45.096 67.1221 43.1249ZM131.259 44.1863C128.985 41.7603 128.985 37.6664 131.259 35.0888C133.534 32.6628 137.324 32.6628 139.447 35.0888C140.205 35.8469 140.66 36.9083 141.115 37.9697L132.776 41.457C133.231 42.5184 134.292 43.4282 135.808 43.4282C137.173 43.4282 138.083 42.9733 138.992 41.6087L141.267 43.1249C140.963 43.4281 140.66 43.7314 140.509 44.0347C137.931 46.6123 133.534 46.6123 131.259 44.1863ZM147.028 46.0058V29.1754H152.487C155.671 29.1754 158.249 31.4498 158.249 34.179C158.249 36.9083 155.974 39.1827 153.093 39.1827H149.758V45.8541H147.028V46.0058ZM159.765 46.0058V29.1754H162.342V46.0058H159.765ZM125.498 45.7025V26.9011H128.227V45.7025H125.498ZM171.743 41.0022C171.137 40.5473 170.227 40.3957 169.317 40.3957C167.498 40.3957 166.436 41.3054 166.436 42.3668C166.436 43.4281 167.498 44.0347 168.559 44.0347C170.075 44.0347 171.743 42.8217 171.743 41.0022ZM94.1114 39.7892C94.1114 37.9697 92.8984 35.9985 90.624 35.9985C88.3496 35.9985 87.1366 37.9697 87.1366 39.7892C87.1366 41.6087 88.3496 43.5798 90.624 43.5798C92.7467 43.5798 94.1114 41.6087 94.1114 39.7892ZM107.758 39.7892C107.758 37.9697 106.545 35.9985 104.27 35.9985C101.996 35.9985 100.783 37.9697 100.783 39.7892C100.783 41.6087 101.996 43.5798 104.27 43.5798C106.545 43.5798 107.758 41.6087 107.758 39.7892ZM121.252 40.8505C121.252 40.6989 121.252 40.5473 121.404 40.3957C121.404 40.244 121.404 39.9408 121.404 39.7892C121.404 39.6375 121.404 39.3343 121.404 39.1827V39.031C121.404 38.8794 121.252 38.5762 121.252 38.4245C120.797 36.9083 119.433 35.8469 118.068 35.8469C116.249 35.8469 114.732 37.6664 114.732 39.6375C114.732 41.7603 116.249 43.4282 118.22 43.4282C119.433 43.5798 120.646 42.5184 121.252 40.8505ZM132.321 39.4859L137.931 37.0599C137.324 35.9985 136.415 35.6953 135.657 35.6953C133.382 35.8469 132.018 38.2729 132.321 39.4859ZM155.519 34.3307C155.519 32.8144 154.306 31.753 152.639 31.753H149.606V37.0599H152.79C154.306 37.0599 155.519 35.8469 155.519 34.3307Z" fill="#252B33"/>
<path d="M64.9995 14.3163C64.9995 11.5871 66.9706 9.91919 69.3966 9.91919C71.0645 9.91919 72.1259 10.6773 72.884 11.7387L71.671 12.4968C71.2161 11.8903 70.458 11.4354 69.3966 11.4354C67.7287 11.4354 66.5157 12.6484 66.5157 14.4679C66.5157 16.2874 67.7287 17.5004 69.3966 17.5004C70.3064 17.5004 71.0645 17.0456 71.3677 16.7423V15.3777H68.9417V14.0131H73.0356V17.1972C72.2775 18.1069 71.0645 18.7134 69.5482 18.7134C66.9706 18.7134 64.9995 16.8939 64.9995 14.3163Z" fill="#252B33"/>
<path d="M74.8551 18.562V10.071H80.6168V11.4357H76.2197V13.5584H80.4652V14.923H76.2197V17.349H80.6168V18.7137L74.8551 18.562Z" fill="#252B33"/>
<path d="M84.8622 18.562V11.4357H82.2846V10.071H88.9561V11.4357H86.3785V18.562H84.8622Z" fill="#252B33"/>
<path d="M94.1113 18.562V10.071H95.6276V18.562H94.1113Z" fill="#252B33"/>
<path d="M99.7214 18.562V11.4357H97.1438V10.071H103.815V11.4357H101.238V18.562H99.7214Z" fill="#252B33"/>
<path d="M108.667 14.3163C108.667 11.7387 110.487 9.91919 113.064 9.91919C115.642 9.91919 117.462 11.7387 117.462 14.3163C117.462 16.8939 115.642 18.7134 113.064 18.7134C110.487 18.7134 108.667 16.7423 108.667 14.3163ZM115.794 14.3163C115.794 12.4968 114.732 11.2838 112.913 11.2838C111.245 11.2838 110.032 12.6484 110.032 14.3163C110.032 16.1358 111.093 17.3488 112.913 17.3488C114.732 17.3488 115.794 15.9842 115.794 14.3163Z" fill="#252B33"/>
<path d="M125.043 18.562L120.646 12.497V18.562H119.129V10.071H120.646L125.043 15.9844V10.071H126.559V18.562H125.043Z" fill="#252B33"/>
<path fill-rule="evenodd" clip-rule="evenodd" d="M18.6902 10.8638C18.2519 11.3348 18 12.0599 18 13.002V46.5127C18 47.4548 18.2519 48.1798 18.7066 48.6345L18.8254 48.7348L37.6022 29.958V29.5361L18.809 10.7634L18.6902 10.8638V10.8638Z" fill="url(#paint0_linear_801_4567)"/>
<path fill-rule="evenodd" clip-rule="evenodd" d="M43.8488 36.2412L37.5858 29.9761V29.5378L43.8509 23.2727L43.9861 23.3567L51.396 27.5675C53.5178 28.7636 53.5178 30.7339 51.396 31.9463L43.9861 36.1572C43.984 36.1572 43.8488 36.2412 43.8488 36.2412V36.2412Z" fill="url(#paint1_linear_801_4567)"/>
<path fill-rule="evenodd" clip-rule="evenodd" d="M43.984 36.1576L37.5858 29.7573L18.6902 48.6529C19.3804 49.3943 20.5417 49.4783 21.8401 48.7533L43.984 36.1576Z" fill="url(#paint2_linear_801_4567)"/>
<path fill-rule="evenodd" clip-rule="evenodd" d="M43.984 23.3592L21.8401 10.7799C20.5437 10.0385 19.3804 10.1389 18.6902 10.8803L37.5837 29.7574L43.984 23.3592Z" fill="url(#paint3_linear_801_4567)"/>
<path opacity="0.2" fill-rule="evenodd" clip-rule="evenodd" d="M43.8488 36.0222L21.8566 48.5176C20.6277 49.2241 19.532 49.175 18.8254 48.5339L18.7066 48.6527L18.8254 48.7531C19.532 49.3921 20.6277 49.4433 21.8566 48.7367L44.0004 36.1574L43.8488 36.0222V36.0222Z" fill="#252B33"/>
<path opacity="0.12" fill-rule="evenodd" clip-rule="evenodd" d="M51.394 31.7276L43.8325 36.0224L43.9676 36.1576L51.3776 31.9467C52.4385 31.3405 52.9608 30.5499 52.9608 29.7573C52.8932 30.4823 52.3545 31.1725 51.394 31.7276V31.7276Z" fill="#252B33"/>
<path opacity="0.25" fill-rule="evenodd" clip-rule="evenodd" d="M21.8402 10.9987L51.394 27.7888C52.3545 28.3275 52.8932 29.0341 52.9771 29.7591C52.9771 28.9685 52.4549 28.1759 51.394 27.5697L21.8402 10.7795C19.7183 9.56706 18 10.5768 18 13.0017V13.2208C18 10.7959 19.7183 9.80259 21.8402 10.9987Z" fill="white"/>
<defs>
<linearGradient id="paint0_linear_801_4567" x1="35.9161" y1="12.6418" x2="5.83891" y2="20.6559" gradientUnits="userSpaceOnUse">
<stop stop-color="#00A0FF"/>
<stop offset="0.007" stop-color="#00A1FF"/>
<stop offset="0.26" stop-color="#00BEFF"/>
<stop offset="0.512" stop-color="#00D2FF"/>
<stop offset="0.76" stop-color="#00DFFF"/>
<stop offset="1" stop-color="#00E3FF"/>
</linearGradient>
<linearGradient id="paint1_linear_801_4567" x1="54.1571" y1="29.7579" x2="17.4843" y2="29.7579" gradientUnits="userSpaceOnUse">
<stop stop-color="#FFE000"/>
<stop offset="0.409" stop-color="#FFBD00"/>
<stop offset="0.775" stop-color="#FFA500"/>
<stop offset="1" stop-color="#FF9C00"/>
</linearGradient>
<linearGradient id="paint2_linear_801_4567" x1="40.5048" y1="33.2391" x2="16.3587" y2="73.8785" gradientUnits="userSpaceOnUse">
<stop stop-color="#FF3A44"/>
<stop offset="1" stop-color="#C31162"/>
</linearGradient>
<linearGradient id="paint3_linear_801_4567" x1="13.9337" y1="-0.283411" x2="24.706" y2="17.8668" gradientUnits="userSpaceOnUse">
<stop stop-color="#32A071"/>
<stop offset="0.069" stop-color="#2DA771"/>
<stop offset="0.476" stop-color="#15CF74"/>
<stop offset="0.801" stop-color="#06E775"/>
<stop offset="1" stop-color="#00F076"/>
</linearGradient>
</defs>
</svg>
